<svg xmlns="http://www.w3.org/2000/svg" viewBox="0 0 39.57 39.57"><defs><style>.cls-1{fill:#fff;}</style></defs><g id="Layer_2" data-name="Layer 2"><g id="Layer_1-2" data-name="Layer 1"><path class="cls-1" d="M19.79,1A18.79,18.79,0,1,1,1,19.79,18.8,18.8,0,0,1,19.79,1m0-1A19.79,19.79,0,1,0,39.57,19.79,19.79,19.79,0,0,0,19.79,0Z"/><path class="cls-1" d="M10.87,29.78a.41.41,0,0,0,.31.14h0l18.3-.06a.44.44,0,0,0,.31-.13.42.42,0,0,0,.11-.32L28.44,11.46a.42.42,0,0,0-.42-.38H24.68V9.92A3.93,3.93,0,0,0,23.5,7.1a4,4,0,0,0-2.82-1.17h0a4,4,0,0,0-4,4v1.17H12.53a.42.42,0,0,0-.42.39l-1.35,18A.41.41,0,0,0,10.87,29.78ZM17.52,9.94a3.18,3.18,0,0,1,3.15-3.17h0a3.16,3.16,0,0,1,2.23.92,3.13,3.13,0,0,1,.93,2.23v1.17l-6.31,0Zm-.83,3.9H16a.42.42,0,0,0-.3.12.47.47,0,0,0-.12.3.43.43,0,0,0,.13.3.38.38,0,0,0,.29.12h2.38a.42.42,0,0,0,0-.84h-.81V12l6.32,0v1.89H23.1a.42.42,0,1,0,0,.84h2.38a.4.4,0,0,0,.29-.12.43.43,0,0,0,.13-.3.42.42,0,0,0-.42-.42h-.79V11.93h2.94L29,29l-17.39.05L12.92,12h3.77Z"/></g></g></svg>