<svg xmlns="http://www.w3.org/2000/svg" viewBox="0 0 39.57 39.57"><defs><style>.cls-1{fill:#fff;}</style></defs><g id="Layer_2" data-name="Layer 2"><g id="Layer_1-2" data-name="Layer 1"><path class="cls-1" d="M19.79,1A18.79,18.79,0,1,1,1,19.79,18.8,18.8,0,0,1,19.79,1m0-1A19.79,19.79,0,1,0,39.57,19.79,19.79,19.79,0,0,0,19.79,0Z"/><path class="cls-1" d="M31.33,27.87l-.1-.1-2.52,2.52.06.06.67.67c.42.42,1.34.21,2-.49s.91-1.6.49-2l-.63-.63Z"/><path class="cls-1" d="M17.21,6.33a9.82,9.82,0,1,0,5.43,18l5.45,5.36,2.52-2.52L25.2,21.83A9.71,9.71,0,0,0,27,16.14,9.82,9.82,0,0,0,17.21,6.33ZM17.38,24a7.8,7.8,0,1,1,7.8-7.8A7.8,7.8,0,0,1,17.38,24Z"/></g></g></svg>